<?xml version="1.0" standalone="no"?>
<!DOCTYPE svg PUBLIC "-//W3C//DTD SVG 20010904//EN"
 "http://www.w3.org/TR/2001/REC-SVG-20010904/DTD/svg10.dtd">
<svg version="1.0" xmlns="http://www.w3.org/2000/svg"
 width="700.000000pt" height="700.000000pt" viewBox="0 0 700.000000 700.000000"
 preserveAspectRatio="xMidYMid meet">
<metadata>
Created by potrace 1.11, written by Peter Selinger 2001-2013
</metadata>
<g transform="translate(0.000000,700.000000) scale(0.100000,-0.100000)"
fill="#000000" stroke="none">
<path d="M0 3500 l0 -3500 3500 0 3500 0 0 3500 0 3500 -3500 0 -3500 0 0
-3500z m2115 447 l600 -794 3 794 2 793 320 0 320 0 0 -1330 0 -1330 -302 2
-301 3 -601 792 -601 792 -3 -795 -2 -794 -323 2 -322 3 -3 1328 -2 1327 308
0 307 0 600 -793z m3465 765 c231 -51 369 -119 490 -241 110 -111 161 -238
161 -401 0 -160 -49 -285 -158 -400 -68 -72 -143 -121 -233 -154 l-60 -22 77
-23 c110 -32 197 -83 273 -161 123 -125 178 -259 187 -451 20 -403 -258 -677
-768 -760 -51 -8 -303 -13 -816 -16 l-743 -5 0 1332 0 1331 748 -4 c715 -3
751 -4 842 -25z"/>
<path d="M4680 3940 l0 -262 308 4 c339 5 374 11 448 71 71 59 102 176 74 278
-15 52 -72 113 -132 140 -52 23 -60 24 -375 27 l-323 3 0 -261z"/>
<path d="M4680 2900 l0 -280 274 0 c151 0 309 5 352 11 189 26 295 124 296
273 0 108 -50 184 -151 230 -92 41 -143 46 -467 46 l-304 0 0 -280z"/>
</g>
</svg>
